# xmcd
#
# Track frame offsets: 
#        150
#        23362
#        48587
#        75787
#        102487
#        122975
#        138237
#        164325
#        184700
#        198612
#        215525
#        238637
#        278400
#
# Disc length: 4043 seconds
#
# Revision: 2
# Processed by: cddbd v1.5.2PL0 Copyright (c) Steve Scherf et al.
# Submitted via: ExactAudioCopy v0.95b3
#
DISCID=aa0fc90d
DTITLE=Peter Green - Castle Masters Collection
DYEAR=1991
DGENRE=
TTITLE0=Slabo Day
TTITLE1=Baby When The Sun Goes Down
TTITLE2=The Clown
TTITLE3=Big Boy Now
TTITLE4=Six String Guitar
TTITLE5=Bullet In The Sky
TTITLE6=Gotta See Her Tonight
TTITLE7=Tribal Dance
TTITLE8=Bandit
TTITLE9=Long Way From Home
TTITLE10=Cryin' Won't Bring You Back
TTITLE11=White Sky
TTITLE12=Last Train To Antone
EXTD=
EXTT0=
EXTT1=
EXTT2=
EXTT3=
EXTT4=
EXTT5=
EXTT6=
EXTT7=
EXTT8=
EXTT9=
EXTT10=
EXTT11=
EXTT12=
PLAYORDER=
